<mxfile host="65bd71144e">
    <diagram id="IZGz5FtTMUEZaCtXVdiI" name="Page-1">
        <mxGraphModel dx="734" dy="734" grid="1" gridSize="10" guides="1" tooltips="1" connect="1" arrows="1" fold="1" page="1" pageScale="1" pageWidth="850" pageHeight="1100" math="0" shadow="0">
            <root>
                <mxCell id="0"/>
                <mxCell id="1" parent="0"/>
                <mxCell id="2" value="" style="shape=image;verticalLabelPosition=bottom;labelBackgroundColor=#ffffff;verticalAlign=top;aspect=fixed;imageAspect=0;image=data:image/png,iVBORw0KGgoAAAANSUhEUgAAAdkAAAA0CAYAAADG6kLqAAAAAXNSR0IArs4c6QAAAARnQU1BAACxjwv8YQUAAAAJcEhZcwAADsMAAA7DAcdvqGQAABwtSURBVHhe7Z0PWFRV3se/DiqKE/5jRiTBCXcxhOjVklgWQleWMHU1pXVbHzIXWTXXl9Y1eXpd3962fCpjqV7rUTM2zMc1CyW28g/ppomEmFLIH5kUR1AUxj+B4yAC43vOvXfgzswdBsgp8P19nsfH4c6958/vnPP7/c45d36nT0VFxS0QBEEQBHHbUUn/EwRBEARxmyEjSxAEQRBugowsQRAEQbgJMrIEQRAE4SbIyBIEQRCEmyAjSxAEQRBugowsQRAEQbgJMrIEQRAE4SbIyBIEQRCEmyAjSxAEQRBugowsQRAEQbgJMrIEQRAE4SbIyBIEQRCEmyAjSxAEQRBugowsQRAEQbiJbhlZi/E4MlNnYOzYGUjNPA6jRfqijWYYC95C4tixGJuYjlyDSbredSyGLCTxdIR/icgoMUvfEO20wpj7vCij1FwYpavd5yoK0pKQmqUHSftO4wJyU2NZX4lFau4F6VoPxZiLVGHcP49cY6t0sSNMqMxahWhB77yFAmOzdF0BixHF72/F/lr7e8woyUhkec5GWsFV6Zo9tuOjtSQDsSzP6LQCVoKfGFMB0mJXIavyJyxJl9qtM/Lu3XTdyLLOedLojydf3YodK/3w8cubcbCqSfpSxFL7Bd54dh0K+R+FG7HsxT0wOBjizqHSzcabmxdBq52HdV/+A0mhXtI3dybCgI3NQElndEobHtDEPYPNyRMQNfFnGC5d7S4Ww2Hk61LxfEIQepu0LYZdyOzxg1VULLEZJcw9YlgqkZ1ZKCro1hJkxLrTmRyJuNUvIVkbgolBw1z2N7k8O9U35XX5oWhisZqP/aj7EDTcQ7rojGbU5qZjfs5IvJaXjx2TTmLTwWooqh1LLQre3wfz1N9iyoh+0kUrXgidu5TJ5z6EjfGWrtliPz48QmfjpeRwRIaNhlq4oV0G3RvP3aUJhs+LoXvnOSQECiX5aehSu7mW9+3Dbtz9SHTdyKo0GDdOA5WlEab6FmgTpiE6wFP6ktOEc2fUSNpbjoqij7AyXAvoq3DR3E0rywbPpXNngZlxiHQYEHceHqFJ2LcvCaGu+qY9lqs4V+6FyHt9f/AegEo3Hct7oYEFGlC2/yz83D5YfyhMsSRtwb6kUOYeWWAu+wqn/fxFBe0RiqR9W9zqTFounUO5Zxju9fd00d9s5em6b9rV5Qcjjn3PyHvh76pTm8vx6ZZv8HDibIRrhmCE/3DoDXXCTNMGbmDf2IjSB6chQqOsT1oNpdgT5NxAOIyP1vMo3TNMcFrsZdDt8dwtPKF77I8/rYEV6EK7MVzJ+/YhH3c/Ht3Tx3xJIuZhzN+oh2642i4RTwRERCLQi1318kfI/RpoZ0YiVN29rLj3cZENliCd1k7ps85syEOGsGw9FtGrclHL7bjZgPyMVHHJKHoV3n3nL+z7aCRlfYNTfCnJxqvk3u/f2L38+0qWIl8GeoJ9Pog9fEktOh0FtSeRxfNIzEQJdxT4MlMmT38G/pL6J0Tze0y2DoTFmI/0xGihXEIa/Hubcv0NucWfiEsqSR+i5FQ2UqP58gr/Zy0Lw/4Zh6UtEwzMe09kzyQ+9zZy9CEI0Q0Qr+dnSmnOwKrcGjE9AWm50KFul1ndZ7P7U5BlaOIuOJtRzUZa1vtiOVM/RYmwBcCXdWql7QDpXoe2WI93lvMlSfZ9SbGQR2zGcVwoyUGaIBdW3vR8YZtBUVY22NelULltjN8gI3Ea5qx9A8uimKyMzW4pk3VpcGzSO9jzobg02db3WN8oyU4Tt0nGJiGdycnClXp6kpgWl13eF0yu/DOXHbs/YwnGz/kbNi1LREpqipj2E4lI/IV0P59FWtuCf+5MHkozeXMlctP4PYl4bn0O9PEBaMjky3RSf7NP4/P9MnkuRWoq7xv8Xj0bM3xrgudTJS3PLmIz73M2deFL0RZjMbKFPFma0vKt6/bmfSlXbJPE/8L6nDrEh9zNlGJHfdoCU/E+ZBqiMCOSO5ktuN7wPTyHqjFQukOE3Ve4Fc+WjsOUcdxxUNIhTag+WYym4FHwsVFZXDcojA8ma0v1SeQ3jcYon0aZDCaJdbSRWSxS9xwX5czr3nBB/JyUJa70KbWtmLmItAwbnZaP2kquM1ifzSiGmetjLhcpHaGPRr+CrO2rXOfpbHx1YpzY0p1249jJ26V+lW1FCrLgS/T27bgLxXu4vLnsJb0v3d/WfoptL+Zwu+me5VNHYMXe3ViXHITCjS/jjX32gpOhisLqxAe679kKXmJfhxmapXYf1iz8BB7z/oGyvWsQdLEBjZYa5K5ZjRyPudhZthtrgm5gSGwS1kTpEFxfiuMYhaDRg6HuIyXCGrjRNwJPRUkzcWE2CASPCkPcksWI0pmQt+UwRiUuwqzCM6i53oTafeuxvDwCm4s24hGcRF1kKMbYOBCs8U4XILt/CvaWV6Di0HJEeF20K1c9GrxjsGRNPPyDr+HE8WYEBU3Hmo82IFmrE+vqUBf2TKNcynz/6WUs3H8PXij6GEs1Z1AYFABfr1Zh2WxhTj/M23kMe9cE4WLDDekZzkjEKtXt2k14R/0eC7RXUG9iXsiVGuir70NYzFysWPc7aGuy8V6pDjNnMTNdvBufVQ3F/f6lOKq/otAWGsT+ieXhr0X9iZNAkD+aDryJZ5bkw+fZnSg/9hruz16Pf5WZHGVlI0txCdC2Lj7K5UcI5i59DP7Jm3Gs4gXEWr5wS5k8Qp/AGyvDgbwjKAv4TxzgaWcdxreXr6Lkvb9iScFIPJtXjGObQ5D9109R1nAGedlqrNlbjIqKnVgRFYO5Ly2C1p/PJDUInbsAyf6LsPlYLt589X/wUnII/GNTkXmYtXlUA8rPMSXuEYzfrJwGnW9L5/KIGCqVVsKsR9YLz2O/LhVFx5ZCk29gTusYRAjLdFJ/M9ul8evJMnluwKurV0r3jsKI2PmsbBq05H2IT0fNwapZRuhrPGzq8mqUEe8t/x8U+CxFXnkBNt//b/z1X+Vo6LC92dipzMELCw9C98JnOLb0buQXalm9+7no0zdgKC0C2pz5K9AfrcTowV5oG+ociwF7Nh3FzOQp0LHbFHWI8Gx1+9KvFUuL8vgY44XL+hPIE/TAEJkMylFxbHO7zOIWY90sb9Rs3Y7S0FjMqjuP4p2fo2rUz+GfdwJ6Z/1Hvq6p4TpjOnQt+djy6TAkrvoVCvUXca1xCKJSnoT2bD1Mt1pZ0apQHTkBMXP/5CLPRufjy+U4ka8RdLfdOHJ5s/HuUr+acDrvMPqv2Y3yigocWhEBL4d2NMNb6KMyvc8c74/es447Tydt7x7kpe8aXoGIW76KVeR7fFlc5bgsw7AYjkMfOQ+xP2CZV/QSx0szNCtXUbhlO7ByCaaqipC5/hBCkn+JYV9/gLVIxDNT+6MoMwO7Q+YgZtA5HM0z4Fvch+kJS5CRkSAMMBE1dIHeuKr3ZoZ1KFM0dTDog9oHTuF5DI2fg1CTHvn+AfDr9y22vHgZi5c8ymbqA+Gt0SjsgaqgDv8dVo+qwNfCC1/ce1YoV8B11rlKUf2tB+6bnoCkjNcQby5CDnhd+zt5pn1Z3lKbj4wNnli5fDoCB9Qz58AIf748Yz6GLWuZaJ6ZDFXRdqzffQ+SY/xlDd2qXDefkRirrse+ukD4j2Cd8HoDLgl7KmacLj6BOkRjweMBqD9WisKzfpgaP4b5KHxfr49CW0Ri0CmWR3UVcF88EhasQEr/81CnLMKTYRqoBqoxVKiKvazsMCnVZSRrL4XyD7Pg0rnzGC2seCj1j9tUJstFnMy/gPCVKVgcMUJU4lrmuF3IxetrByBlSQLCNJ4YqB4MIbm7HkDian8UfX1WGiP1KMnLA3PzofNgyfGl29HcOWItZKpAXg7/is0AVL64N3KkuORpLsVnJTr80nKwk3nIYYor7wNs6JuI5bODMIDnV8cVvxbmknypv7GxpbZPgy/5WeXJ+rD83sun2JgqQ+nQOCwMvYmS/EEI8hssq0szDLsysLb/77HkyQnQqDyhHjqIpanCXS5km5exE31XLsXsQE9hybGOK8UhJS76dBNMV1vaV7tMZ1Gc308c08L3Ipaq49idx8c3n8Uq9ZFoBJj5s/7S0q8MlaaD8aFv0wPtMmDFkMtMKJMRmDQPj/uZcQx6nPX7FeID+qOJpfOza/uV29YGbpC+RWGpD+IXhrL0T8A/yA8+mgCo65lBesAfIzz4LN4klsdFnkGeTJ85G18ux4mMbrcbQyijJG8+3l3q16EIT1yAUUXfwiBsQTppx6u8j8r1fhzM+dZx5+QZm4LdPn5YsqqhGMWm+Y5LuQyzAYUXxyCBKSIV86QLSr6XvugKzEO6WAW9MEOTFVVQRnnIWpaIFXu+h24em834NaOMKa/qrGWYtGIPGnRz8OdZAbCcKUG+9tdInB7sWEaGsB+AKESFeqE2Pxc5nlxhi4ZFmzAH08cNFDoN4oMx/CQbNJHTEKNjvUwoQ5PDQBZQ+SHu2SkwrMlCiZl5qA7l0mGQMJgHIiExDuOEuon7GKLndk35mbaMmlB16DN8Gc/3qT1gLvsSOXka1n9GopEP7OqtWDZpNfY0BGLen+PhN0i+A9GgUDfe8cRlm2pBcTSgMOuf0PMlHNaJ+eyelzP4CjNo1SGYOWMifKq43EZjlGelQlu04ExbHkyhCUo5BFMfvJvJirVp+dc4YHWcbGQln6lLit2hLkptw8rf5zy+3l0jtodi/7gdZWIIjhiTwZSxrD/xPcvPoZ8ZDt+LZciLisaDgiPEZqBHCtEkyLUfm8UkYYYhA9tKGli1uDybJc+dtePXh0Q5s7YVFHSd9QUQT4zwD0Sd8Qzyt32C1rgJ6MudhM7kIcdSjUPbyxHP2myESixvnpbX00PW33jHsi+nTJ42fZN1/dPtY0ow2oIh6SOriziTjJo6QVRc5lM4cqBFch6cy9ZSlY/tX44Xl3zNFdifcxxa67jrsE/fQIOxCT7eA4WyCuNY9xvEhw2Wvhe5ZarHWaF/s2cV+8gg3BL0AV/6tZ8YOBkft/hKm1UPyNtTLjPWwwQ5cZkF4gpPRzuZ1XMIqvgMPNgXcNq2Yu4CgkGSdIbgWHuKMpUcP9GwFiHrzTNCeVgBOsjTD55lrsaXi3Ei0f12s+pfLm8Pcbx3Qr+qRsTi2RnVWLOtBGbFdhwIs6yPCnpfPu6ctL19PreLLqbLFF9BOqKtP8uxNKLh2gOYG303bpRkIlHYm+GDvAEl217G/PmPYDxfBx//Ns6pm1GSsUja/7NTXE7hXv9RBFkHK29kQy7S3/oEFzAJK3d8hi3LYzBoXwZ21vD9Sk82w/gIRVtS2Aw2H6/v/A61XAk7fWlKWlphRlx7LR9bt38jKWzeIJ6CMRkBrmwqET60GdXnLgMabwzk+1sbNmFTm0K0wuWzHs/zfQcvLXQ4hCOVfBHCvlxVaBEGAO/00jK4oNRKERXUD9eMNxWfaZdaK0z1V4RPFmMB3t1yCC3MY2srS/hz2FG0CctjPLHv9V2osbFdSnWz4IrZhIuGajYbDsKwshy8vckoOE8DBO//PsSM16CROzxRv0dCuJe4j8KX5+7ipbdri3MX2/PgXw/0hkZ7A/WmJqG8G179FwJW/xbjSjbaycp+KYlhX5cWJ+Wv0jNlEIRQ9VVUXecVdk+ZBKUgvDSkgrHgfbyaeTdWJ06E1nswtDdNMN1oar8+qwnvPM/3erzgq7uBbUeq0CzIczSCPK7BaJGWypiDd6nqsqCg86KY0rz2fXtbf/xPHPRfgAWhg1mRO5eHzZuTt8yoP8v3oG6yZz7AlgNsZsMVv9eF9v5WeRDp9mkIylWSp6la1jfNomMjjCmLWOZwNgu5Ui2rSzObhahxs96EG3yvd8ObyAyYj1mWDzqUrWAE+Qf+zLtbcaBliKAU7+LXOurTGIagiffgUkMjWmu/wP++eBQPtzmvdvh4y5xVex1iEg1pm+Mhh78bojA++EqbsGzMx56sPQ3lMpmZRDlFRmD8iGbhHZOolFkI96pjxrEFM6OClfuP3TabaKhFnQGhH/mxed01mAXHbyQi7x2Isu3vMb3kD52vh4s8xyrLVT6+nI6T3yFcJp/ut5vkuAjy7oPGhnoX+vUqCtKZ7althZevH7DtKCpb+HX7dpT3UVHvi6sY1nGn9Ay3H+5BoRd2hApeYyLwGLKx7JEHEP1cLtQLFiPOxoDxfbQ3sGTtAelvhlbJM3SB8GJBBOZvOo68VVMRLGxaB2P8IxtgmbQIS1N8kDlnIsbGpKM0YhmejrgHYbN/C7/Mx5lhn4200v/A6sX+0DMlLM4alBBfkND6GLBvbzNCHxoEfLsbu/YdwVH9RDa7ZZ6woKT0KGTG0ifo59Btmo+pL3wFn7Dx8NdWYv8X5bIlOu69nsQHyyYjOHgq3vSZjsmBvo7levp+XBEGgGwwC/kwVag3wjxouMIz4bI6DEDgQ1OEskxLq0X8Yw/BKJSlAqqw6Ujx24E544MRk6ZHxOo/2O57ceXpUDcTPAfcZLOBZow0HsBH3/lj5qwhMO/+GB8XnmSGlXvvzcK+l/jGoKhw6nJykX89CLPt2mKxX5VsWY6hDm27J3h2DgYvSceqOA2uOMiq3TvmfU2tVJemSsXy9204j2Payzh0pBqemjA3lUlSCtVrMWdcKKLevonELctZ//eUlZXlna3GEnY9tq8RpR8sw8PBYXjkTTUWT9axWTZTSNp66C/fxKBbl1F9rBkth47itCfz5JnjpL15HpfN/VjtPTDM7x5MWvQcnon1Y3/L5dFxHjZzBY8APPSEBpvmL0TauQfx2KRB0NYcxhfFNW39zWS+6JAGaqvb5enJlGxb32RlP3pFUNJqq7NXWIWGvsxAtdVlRHv/DV6I7MELsGVVDPrWdCRbVtTAiXhCl435097CufiZmGRsRM3+wzCMebTjPs0c0oCYOQjJmY9xD69DS8rfWVtymdnioQvBoyOYEud/yNq/XYd4Cv1a27Ifryyyvhhkhc+WnYwPJqf9r/w3sk6db5dBf4tMZk2ikeMzTfk7JoJxPI6cT47heqhj29rqVXGbRy/tO4uGTY/Khr4Y0NgAY11/GHN34bvgKZiFauzeuQuFpzqbZ7tcw69804lxYivb7rebqEes8q71vadj/conCKXM9jwciuBHNsNncTQChyi0Y7hZcL7lel+Ql3XceSu1vd17DLeRPhUVFbekzwRBdAh/w/RpbNKtwaaEQAclTvR0WPtlfgXfJx+VvZdBEO6FuhpBdBZhL0cr7U8RvY/BCHtQBb1d8ByCcCc0kyWIzsB/oxi1DB/zz/4rsWPvjxVggCCI3gwZWYIgCIJwE71o1ctVEPz273tEoG6B7gS/Ft+gdoyuonzdYvgC2fY/2+gQa4D4rpTpx+CHBArne6V0oAFBED2PXmRkXQXB59/zqCohHbxN/GPTjeDX5hJsW70DqqVZKC96G5OKdogHMDi5rgoYDXx9sgtOxUjErViJWfKf/LTRBEP2hwqh7n4Muh8ovDcfaEAQxJ1N73p/Q/iNZwdB8OXRQ3oIwu8qOx382iLEYN12/wL8kQfx8NLA3+8MjuovObl+hbXgQAz6rhAlnTaMLA/+Q23rj/Ll8B+Snx6u8BvBH4euyaqd3nugAUEQdzq9wMialIPgKwTPF5S0biTqs562XWrtMNC+UsBphs0zrg4akHDIR/xxu2OwcWfwGKylUig7huA08JB1/Z1clyLatJxAqUEhkINiwHExD12wEVnz+dIzv34BJh5MZPzjWLvpaUTx5Xj7ukgHGjgEJ+f5OLm3/fADhaPbOi2rnnWgQTvW7QnXQd9tAp7zsgn/pLJYKpGV9Bfps3171UAMLO+i3xEE0WPp4UbWSRD8AQoB9xsbxUAB6A//hNdRtCMJ2LgXRcYql4H27QNOq7t80ABDMaD/JTECTKeXrz2gHqyGvugUU+hSeDghZJ3ayXXmbLTygAZKO5ENygHHm3kItrPs+zFI2PgJdqzsi43ZJ9AYOhNLkycheXMBKl4ORZF9XYQDDRyDk19XqrfD4QdaDFbLZqddklVPOtBALmfr9oR3xwHY7QOez1qHvIoD7LlqaSViNGLmjmPpKbXXbhgn2wU6t+93BEH0aHq0kVUOgh+EIUoHAQgB968geekCxOm8MUCtRn+tGpai7R0G2ncMOG1RDs7f4UEDTp4ZdlFh+dr6go91RiP7l3oQA5mReKzqRTwcHIqHl30O3VOxCFMPRIDidZV4gEL1MFsjxrAYnASsv8QjPj2KpYtjofMayIz3AGh5KDNhKV4Nne+ADg40sA9O7ot+nTr84O9I4PFIBboiK05POtDADmFFwUUAdsWA54PhFzRUCAPIj5grvvgz58H/eXs57XcEQfR0evBwdRYEfxBOOg24Hyi9NCMF6p45Fij5qoNA+yI2AaelU1K6dtCA0jM6eFqD6NuElBQPDq5gs2aHf6/GYYQmEsu3/BtfrpsHbfhcLP2NmJ9K8bpYz/bA4lYkw+QQcDwYw8+yeljDOQrxkuuEEHlePLan/m5WVuYEuDrQoC04eUdtIT/8QE5XZMXpYQcayOg46LsUgN1pwPObOFtvgqnsOK5OCHMS/F9qrw4OuCAIomfTg41sR0HwHYPn32x7acYCY3EW1m8YjtWJD2FIh4H2FQJOC/tdXT1ogGP/TAUMXPEqBhvviGZW/g+Rvn0YXktfhAiNNT+F65KRTJbOx2ynj3Iw+cRxuFxaiiA+m+J7he9vxAbfBUgM9xaNcmQQ1JdqcE1BZvIDDdqDk9e7vFe55l2QVY850MA2KLrVkXMegP3n6Os04Ll4wk6TPhcfnNTh0VAnwf8Tw9Dkst8RBNGTUdaBPQJnQfAvYIxC8PwhgZOxMng3HgkOxeytzZj5Lg+wrek40L5SwGmPwd04aEDhmafDYHYabFwJ64s0i7FZPwZL1j0tGVhn1/my66fYHfmcQnBr5WDycSO8EThlLoJz5iM4+A/Y2joD766KZYalCbXVlaysx3Hk9FD8wqEuDzCDoBScXKtwr8LhBzZ0UVY95kAD+4DzPM2OA7BfcxHwvK7GB5GPjmMzVCftpamzCXTeWpKBWHrxiSB6FRTxqZfCZ1jvfwZMezICmh7sKhFK8Bf6MvHlvU/iqVDJsBMEcUdCRrYXQga2l2IuRsayXRj8+DBUqabjGYXj2AiCuLOgMd4LUWki8NRTZGB7HRYzruoP46hpEhaTgSWI/xfQTJYgCIIg3AQ50wRBEAThJsjIEgRBEISbICNLEARBEG6CjCxBEARBuAkysgRBEAThJsjIEgRBEISbICNLEARBEG6CjCxBEARBuInbZGRNqMzOQaHJZRR8EVMB0qKTkJZbCTM/CSdttnieahIPDi/9LXyW7pcjPBuNpKxK2Wk6LrBUIispWsgjOq2AldYOIU1+pmsX0+0EFkMWknjdotNR0CYfC8syHdHCObIpyDI0SdcJgiCIO4nbYGQtMJdk4fn00500TszAlF2A9u1XsDwuEF4YiojFK5Gs1SJq6gQEqNjfK3aiwtnh1OoIrDh0CBkJgZ0vvCoQs1enIAohwtmpDifpqMOx+LVF0GKCdIbo7UOlm4Lk5BAgKAC+bWerqlg1FuA1ft3hLFiCIAjizgD4PyD9BiZpsqPFAAAAAElFTkSuQmCC;" vertex="1" parent="1">
                    <mxGeometry x="10" y="10" width="473" height="52" as="geometry"/>
                </mxCell>
                <mxCell id="24" value="" style="edgeStyle=none;html=1;fontSize=14;" edge="1" parent="1" source="3" target="9">
                    <mxGeometry relative="1" as="geometry"/>
                </mxCell>
                <mxCell id="3" value="Inicio" style="rounded=1;whiteSpace=wrap;html=1;" vertex="1" parent="1">
                    <mxGeometry x="241.67" y="60" width="120" height="60" as="geometry"/>
                </mxCell>
                <mxCell id="26" value="" style="edgeStyle=none;html=1;fontSize=14;" edge="1" parent="1" source="5" target="25">
                    <mxGeometry relative="1" as="geometry"/>
                </mxCell>
                <mxCell id="30" value="" style="edgeStyle=none;html=1;fontSize=14;" edge="1" parent="1" source="5" target="13">
                    <mxGeometry relative="1" as="geometry"/>
                </mxCell>
                <mxCell id="34" value="" style="edgeStyle=none;html=1;fontSize=14;" edge="1" parent="1" source="5" target="33">
                    <mxGeometry relative="1" as="geometry"/>
                </mxCell>
                <mxCell id="5" value="si num != -99" style="html=1;whiteSpace=wrap;aspect=fixed;shape=isoRectangle;" vertex="1" parent="1">
                    <mxGeometry x="218.33999999999997" y="250" width="166.67" height="100" as="geometry"/>
                </mxCell>
                <mxCell id="23" value="" style="edgeStyle=none;html=1;fontSize=14;" edge="1" parent="1" source="9" target="5">
                    <mxGeometry relative="1" as="geometry"/>
                </mxCell>
                <mxCell id="9" value="Leer num" style="shape=parallelogram;perimeter=parallelogramPerimeter;whiteSpace=wrap;html=1;fixedSize=1;size=30;" vertex="1" parent="1">
                    <mxGeometry x="226.67000000000002" y="150" width="150" height="80" as="geometry"/>
                </mxCell>
                <mxCell id="12" value="&lt;ul style=&quot;font-size: 14px;&quot;&gt;&lt;li style=&quot;font-size: 14px;&quot;&gt;num&amp;nbsp;&lt;/li&gt;&lt;li style=&quot;font-size: 14px;&quot;&gt;num_max&lt;/li&gt;&lt;li style=&quot;font-size: 14px;&quot;&gt;&lt;div style=&quot;padding: 0px; margin: 0px; font-size: 14px;&quot;&gt;&lt;br style=&quot;padding: 0px; margin: 0px; font-size: 14px;&quot;&gt;&lt;/div&gt;&lt;/li&gt;&lt;/ul&gt;" style="text;strokeColor=none;fillColor=none;html=1;whiteSpace=wrap;verticalAlign=middle;overflow=hidden;fontSize=14;" vertex="1" parent="1">
                    <mxGeometry x="10" y="90" width="120" height="80" as="geometry"/>
                </mxCell>
                <mxCell id="28" value="" style="edgeStyle=none;html=1;fontSize=14;" edge="1" parent="1" source="13" target="27">
                    <mxGeometry relative="1" as="geometry"/>
                </mxCell>
                <mxCell id="31" value="" style="edgeStyle=none;html=1;fontSize=14;" edge="1" parent="1" source="13" target="16">
                    <mxGeometry relative="1" as="geometry"/>
                </mxCell>
                <mxCell id="13" value="si num &amp;gt;= 0" style="html=1;whiteSpace=wrap;aspect=fixed;shape=isoRectangle;fontSize=14;" vertex="1" parent="1">
                    <mxGeometry x="226.67000000000002" y="375" width="150" height="90" as="geometry"/>
                </mxCell>
                <mxCell id="32" value="" style="edgeStyle=none;html=1;fontSize=14;" edge="1" parent="1" source="15" target="16">
                    <mxGeometry relative="1" as="geometry"/>
                </mxCell>
                <mxCell id="15" value="&#10;&#10;&lt;span style=&quot;color: rgb(240, 240, 240); font-family: helvetica; font-size: 14px; font-style: normal; font-weight: 400; letter-spacing: normal; text-align: center; text-indent: 0px; text-transform: none; word-spacing: 0px; background-color: rgb(42, 42, 42); display: inline; float: none;&quot;&gt;num_max = 0&amp;nbsp;&lt;/span&gt;&#10;&#10;" style="shape=parallelogram;perimeter=parallelogramPerimeter;whiteSpace=wrap;html=1;fixedSize=1;fontSize=14;" vertex="1" parent="1">
                    <mxGeometry x="241.67000000000002" y="490" width="120" height="60" as="geometry"/>
                </mxCell>
                <mxCell id="19" value="" style="edgeStyle=none;html=1;fontSize=14;" edge="1" parent="1" source="16" target="18">
                    <mxGeometry relative="1" as="geometry"/>
                </mxCell>
                <mxCell id="35" value="" style="edgeStyle=none;html=1;fontSize=14;" edge="1" parent="1" source="16" target="17">
                    <mxGeometry relative="1" as="geometry"/>
                </mxCell>
                <mxCell id="16" value="si num &amp;gt; num_max" style="html=1;whiteSpace=wrap;aspect=fixed;shape=isoRectangle;fontSize=14;" vertex="1" parent="1">
                    <mxGeometry x="226.67000000000002" y="580" width="150" height="90" as="geometry"/>
                </mxCell>
                <mxCell id="17" value="num = num_max" style="rounded=0;whiteSpace=wrap;html=1;fontSize=14;" vertex="1" parent="1">
                    <mxGeometry x="410" y="595" width="120" height="60" as="geometry"/>
                </mxCell>
                <mxCell id="21" value="" style="edgeStyle=none;html=1;fontSize=14;startArrow=none;" edge="1" parent="1" source="27" target="20">
                    <mxGeometry relative="1" as="geometry"/>
                </mxCell>
                <mxCell id="18" value="" style="shape=waypoint;sketch=0;size=6;pointerEvents=1;points=[];fillColor=default;resizable=0;rotatable=0;perimeter=centerPerimeter;snapToPoint=1;fontSize=14;" vertex="1" parent="1">
                    <mxGeometry x="150" y="605" width="40" height="40" as="geometry"/>
                </mxCell>
                <mxCell id="22" value="" style="edgeStyle=none;html=1;fontSize=14;" edge="1" parent="1" source="20">
                    <mxGeometry relative="1" as="geometry">
                        <mxPoint x="302" y="240" as="targetPoint"/>
                    </mxGeometry>
                </mxCell>
                <mxCell id="20" value="" style="shape=waypoint;sketch=0;size=6;pointerEvents=1;points=[];fillColor=default;resizable=0;rotatable=0;perimeter=centerPerimeter;snapToPoint=1;fontSize=14;" vertex="1" parent="1">
                    <mxGeometry x="150" y="220" width="40" height="40" as="geometry"/>
                </mxCell>
                <mxCell id="25" value="" style="shape=waypoint;sketch=0;size=6;pointerEvents=1;points=[];fillColor=default;resizable=0;rotatable=0;perimeter=centerPerimeter;snapToPoint=1;" vertex="1" parent="1">
                    <mxGeometry x="150.005" y="280" width="40" height="40" as="geometry"/>
                </mxCell>
                <mxCell id="27" value="" style="shape=waypoint;sketch=0;size=6;pointerEvents=1;points=[];fillColor=default;resizable=0;rotatable=0;perimeter=centerPerimeter;snapToPoint=1;fontSize=14;" vertex="1" parent="1">
                    <mxGeometry x="150" y="400" width="40" height="40" as="geometry"/>
                </mxCell>
                <mxCell id="29" value="" style="edgeStyle=none;html=1;fontSize=14;endArrow=none;" edge="1" parent="1" source="18" target="27">
                    <mxGeometry relative="1" as="geometry">
                        <mxPoint x="170" y="625" as="sourcePoint"/>
                        <mxPoint x="170" y="240" as="targetPoint"/>
                    </mxGeometry>
                </mxCell>
                <mxCell id="33" value="Fin" style="rounded=1;whiteSpace=wrap;html=1;" vertex="1" parent="1">
                    <mxGeometry x="488.345" y="270" width="120" height="60" as="geometry"/>
                </mxCell>
            </root>
        </mxGraphModel>
    </diagram>
</mxfile>